<svg width="8" height="5" viewBox="0 0 8 5" fill="none" xmlns="http://www.w3.org/2000/svg">
<mask id="path-1-inside-1_1_74" fill="white">
<path d="M3.57627 4.82938L0.175206 1.538C-0.059867 1.3105 -0.059867 0.942643 0.175206 0.71757L0.740383 0.17062C0.975457 -0.0568732 1.35558 -0.0568732 1.58815 0.17062L3.9989 2.50363L6.40965 0.17062C6.64473 -0.0568732 7.02485 -0.0568732 7.25742 0.17062L7.8226 0.71757C8.05767 0.945063 8.05767 1.31292 7.8226 1.538L4.42153 4.82938C4.19146 5.05687 3.81134 5.05687 3.57627 4.82938Z"/>
</mask>
<path d="M3.57627 4.82938L5.66254 2.67358L5.66254 2.67358L3.57627 4.82938ZM0.175206 1.538L-1.91107 3.69379L-1.91107 3.69379L0.175206 1.538ZM0.175206 0.71757L2.24993 2.88448L2.25572 2.87894L2.26148 2.87337L0.175206 0.71757ZM0.740383 0.17062L2.82666 2.32642L2.82666 2.32642L0.740383 0.17062ZM1.58815 0.17062L-0.509621 2.31523L-0.503889 2.32084L-0.498127 2.32642L1.58815 0.17062ZM3.9989 2.50363L1.91263 4.65943L3.9989 6.67842L6.08518 4.65943L3.9989 2.50363ZM6.40965 0.17062L4.32338 -1.98518L4.32338 -1.98518L6.40965 0.17062ZM7.25742 0.17062L5.15965 2.31523L5.16538 2.32084L5.17114 2.32641L7.25742 0.17062ZM7.8226 0.71757L5.73632 2.87337L5.73632 2.87337L7.8226 0.71757ZM7.8226 1.538L5.74787 -0.628917L5.74208 -0.623374L5.73632 -0.6178L7.8226 1.538ZM4.42153 4.82938L2.33526 2.67358L2.32367 2.6848L2.3122 2.69614L4.42153 4.82938ZM5.66254 2.67358L2.26148 -0.6178L-1.91107 3.69379L1.48999 6.98518L5.66254 2.67358ZM2.26148 -0.6178C3.23815 0.327375 3.25511 1.92207 2.24993 2.88448L-1.89952 -1.44934C-3.37485 -0.0367804 -3.35789 2.29363 -1.91107 3.69379L2.26148 -0.6178ZM2.26148 2.87337L2.82666 2.32642L-1.34589 -1.98518L-1.91107 -1.43823L2.26148 2.87337ZM2.82666 2.32642C1.90488 3.21847 0.429985 3.23431 -0.509621 2.31523L3.68592 -1.97399C2.28117 -3.34806 0.0460344 -3.33222 -1.34589 -1.98518L2.82666 2.32642ZM-0.498127 2.32642L1.91263 4.65943L6.08518 0.347835L3.67442 -1.98518L-0.498127 2.32642ZM6.08518 4.65943L8.49593 2.32642L4.32338 -1.98518L1.91263 0.347835L6.08518 4.65943ZM8.49593 2.32642C7.57415 3.21847 6.09926 3.23431 5.15965 2.31523L9.35519 -1.97399C7.95044 -3.34806 5.71531 -3.33222 4.32338 -1.98518L8.49593 2.32642ZM5.17114 2.32641L5.73632 2.87337L9.90887 -1.43823L9.3437 -1.98518L5.17114 2.32641ZM5.73632 2.87337C4.75965 1.92819 4.74269 0.333501 5.74787 -0.628917L9.89732 3.70491C11.3727 2.29235 11.3557 -0.0380661 9.90887 -1.43823L5.73632 2.87337ZM5.73632 -0.6178L2.33526 2.67358L6.50781 6.98518L9.90887 3.69379L5.73632 -0.6178ZM2.3122 2.69614C3.26331 1.75569 4.74718 1.78774 5.66254 2.67358L1.48999 6.98518C2.87551 8.32601 5.11961 8.35806 6.53086 6.96262L2.3122 2.69614Z" fill="black" mask="url(#path-1-inside-1_1_74)"/>
</svg>
